<?xml version="1.0" encoding="UTF-8" standalone="no"?>
<!-- Created with Inkscape (http://www.inkscape.org/) -->

<svg
    width="300mm"
    height="300mm"
    viewBox="0 0 300 300"
    version="1.1"
    xmlns="http://www.w3.org/2000/svg">
    <g>
        <path
            id="circle"
            style="fill:#ffffff;fill-opacity:1;"
            d="M 135.79184,283.25177 C 80.458038,276.8705 35.417908,238.33811 20.754606,184.83599 10.659677,148.00254 17.265812,107.67143 38.615575,75.792995 60.501832,43.113497 93.767678,22.450735 133.44932,16.887922 c 7.48105,-1.048739 27.39886,-0.902825 34.87742,0.255507 17.79144,2.755656 33.4955,8.092818 47.76254,16.232504 35.07424,20.010708 58.99772,54.024722 66.08062,93.952357 1.80046,10.14947 2.26537,28.6316 0.969,38.52133 -2.85274,21.76301 -9.7573,40.49645 -21.39259,58.04228 -5.30939,8.00649 -9.89644,13.60506 -16.87458,20.59573 -20.45458,20.49128 -46.4609,33.66027 -75.08296,38.02026 -9.07703,1.38271 -25.3668,1.73913 -33.99693,0.74388 z m 24.72653,-6.53309 c 58.41829,-5.08966 104.85855,-47.76745 115.05151,-105.7303 1.44722,-8.22978 1.96534,-24.64665 1.05886,-33.55151 C 272.47185,96.60071 249.82327,61.183749 214.49879,40.280468 199.96951,31.682761 184.01694,26.270702 165.46367,23.644836 159.36934,22.782298 140.82246,22.795961 134.49043,23.667648 99.064034,28.5446 69.137721,45.951437 48.13229,73.898435 36.201721,89.771645 28.332713,108.28628 24.538902,129.41023 c -1.021686,5.68875 -1.168692,8.27522 -1.168692,20.56236 0,12.386 0.142257,14.84839 1.197926,20.73547 4.319324,24.08728 14.120738,44.8279 29.74223,62.93706 16.415304,19.02939 39.932072,33.41748 64.823594,39.66054 13.48644,3.38254 27.99789,4.57933 41.38441,3.41302 z"
        />
        <path
            id="text"
            style="fill:#ffffff;fill-opacity:1;"
            d="m 39.842012,96.828198 v 19.644282 h 77.837108 l -77.837108,65.43011 v 21.26899 H 146.18487 V 183.5273 H 68.347766 L 146.18487,118.09718 V 96.828198 Z m 135.032588,0 c -3.74171,0 -7.18801,0.935702 -10.33891,2.806547 -3.05243,1.870845 -5.51423,4.381455 -7.38508,7.532355 -1.87085,3.05244 -2.80603,6.44994 -2.80603,10.19163 v 21.85913 c 0,3.84016 0.93518,7.3358 2.80603,10.4867 1.87085,3.05243 4.33265,5.51423 7.38508,7.38508 3.1509,1.87085 6.5972,2.80603 10.33891,2.80603 h 64.39658 c 0.49232,0 0.88644,0.14798 1.18184,0.44338 0.39385,0.2954 0.59066,0.689 0.59066,1.18132 v 20.23494 c 0,0.49233 -0.19681,0.93525 -0.59066,1.32912 -0.2954,0.29539 -0.68952,0.44287 -1.18184,0.44287 h -63.65813 c -0.49232,0 -0.93524,-0.14748 -1.32912,-0.44287 -0.29539,-0.39387 -0.44338,-0.83679 -0.44338,-1.32912 v -7.23728 h -19.49597 v 8.12302 c 0,3.74169 0.93518,7.188 2.80603,10.3389 1.87085,3.05243 4.33265,5.51423 7.38508,7.38508 3.1509,1.87084 6.5972,2.80655 10.33891,2.80655 h 65.28283 c 3.74169,0 7.13868,-0.93571 10.19111,-2.80655 3.15091,-1.87085 5.66204,-4.33265 7.53287,-7.38508 1.87086,-3.1509 2.80604,-6.59721 2.80604,-10.3389 v -21.85913 c 0,-3.84017 -0.93518,-7.28647 -2.80604,-10.33891 -1.87083,-3.1509 -4.38196,-5.66203 -7.53287,-7.53287 -3.05243,-1.87085 -6.44942,-2.80603 -10.19111,-2.80603 h -64.54438 c -0.49232,0 -0.93524,-0.14746 -1.32912,-0.44287 -0.29539,-0.29539 -0.44338,-0.68951 -0.44338,-1.18184 v -20.23494 c 0,-0.49233 0.14799,-0.88593 0.44338,-1.18132 0.39388,-0.39386 0.8368,-0.59066 1.32912,-0.59066 h 63.65813 c 0.49232,0 0.88644,0.1968 1.18184,0.59066 0.39385,0.29539 0.59066,0.68899 0.59066,1.18132 v 7.23729 h 19.64377 v -8.12302 c 0,-3.74169 -0.93518,-7.13919 -2.80604,-10.19163 -1.87083,-3.1509 -4.38196,-5.66151 -7.53287,-7.532355 -3.05243,-1.870845 -6.44942,-2.806547 -10.19111,-2.806547 z"
        />
        <path
            id="bg"
            style="fill:#0e4178;fill-opacity:1;"
            d="M 150.00015,6.35 A 143.65,143.65 0 0 0 6.35,150.00015 143.65,143.65 0 0 0 150.00015,293.64977 143.65,143.65 0 0 0 293.64977,150.00015 143.65,143.65 0 0 0 150.00015,6.35 Z m 0.88883,9.838159 c 6.84939,0.05018 13.69842,0.376333 17.4377,0.955497 17.7914,2.755652 33.49545,8.092414 47.76245,16.232084 35.07418,20.010668 58.99784,54.024853 66.08072,93.9524 1.80046,10.14945 2.26531,28.63197 0.96894,38.52168 -2.85274,21.76297 -9.75724,40.49615 -21.39249,58.04194 -5.30939,8.00647 -9.89629,13.60499 -16.87443,20.59564 -20.45454,20.49124 -46.46127,33.66043 -75.08327,38.02042 -9.07701,1.38271 -25.36678,1.73939 -33.99689,0.74414 C 80.45802,276.87071 35.418079,238.33776 20.754805,184.83574 10.659896,148.00237 17.266011,107.67116 38.61573,75.792789 60.501945,43.113357 93.767652,22.450659 133.44922,16.887858 c 3.74051,-0.524369 10.59037,-0.749877 17.43976,-0.699699 z m -0.82269,6.817672 c -6.19,0.0046 -12.40979,0.226132 -15.57579,0.661975 C 99.06417,28.544748 69.137851,45.951389 48.132462,73.898331 36.201917,89.771509 28.332875,108.28628 24.53907,129.41019 c -1.021684,5.68873 -1.16892,8.27545 -1.16892,20.56257 0,12.38596 0.142192,14.84809 1.197859,20.73517 4.319316,24.08722 14.120909,44.82812 29.742371,62.93724 16.41527,19.02935 39.931962,33.41757 64.82343,39.66063 13.48642,3.38252 27.99806,4.57902 41.38456,3.41271 58.41817,-5.08966 104.85843,-47.76725 115.05137,-105.72998 1.44722,-8.22976 1.96533,-24.6466 1.05885,-33.55144 C 272.4717,96.601008 249.82295,61.183467 214.49853,40.280228 199.96929,31.682539 184.01703,26.27093 165.4638,23.645068 162.41664,23.213801 156.25629,23.001271 150.06629,23.005831 Z M 39.842012,96.828198 H 146.18487 V 118.09718 L 68.347766,183.5273 h 77.837104 v 19.64428 H 39.842012 V 181.90259 L 117.67912,116.47248 H 39.842012 Z m 135.032588,0 h 65.28283 c 3.74169,0 7.13868,0.935703 10.19111,2.806547 3.15091,1.870845 5.66205,4.381455 7.53287,7.532355 1.87086,3.05244 2.80604,6.44994 2.80604,10.19163 v 8.12302 h -19.64377 v -7.23729 c 0,-0.49233 -0.19681,-0.88593 -0.59066,-1.18132 -0.2954,-0.39386 -0.68952,-0.59066 -1.18184,-0.59066 h -63.65813 c -0.49232,0 -0.93524,0.1968 -1.32912,0.59066 -0.29539,0.29539 -0.44338,0.68899 -0.44338,1.18132 v 20.23494 c 0,0.49233 0.14799,0.88645 0.44338,1.18184 0.39388,0.29541 0.8368,0.44287 1.32912,0.44287 h 64.54438 c 3.74169,0 7.13868,0.93518 10.19111,2.80603 3.15091,1.87084 5.66205,4.38198 7.53287,7.53287 1.87086,3.05244 2.80604,6.49874 2.80604,10.33891 v 21.85913 c 0,3.74168 -0.93518,7.188 -2.80604,10.3389 -1.87082,3.05243 -4.38196,5.51423 -7.53287,7.38508 -3.05243,1.87084 -6.44942,2.80655 -10.19111,2.80655 H 174.8746 c -3.74171,0 -7.18801,-0.93571 -10.33891,-2.80655 -3.05242,-1.87085 -5.51423,-4.33265 -7.38508,-7.38508 -1.87084,-3.1509 -2.80603,-6.59722 -2.80603,-10.3389 v -8.12302 h 19.49597 v 7.23728 c 0,0.49233 0.14799,0.93525 0.44338,1.32912 0.39388,0.29539 0.8368,0.44287 1.32912,0.44287 h 63.65813 c 0.49232,0 0.88644,-0.14748 1.18184,-0.44287 0.39385,-0.39387 0.59066,-0.83679 0.59066,-1.32912 v -20.23494 c 0,-0.49232 -0.19681,-0.88592 -0.59066,-1.18132 -0.2954,-0.2954 -0.68952,-0.44338 -1.18184,-0.44338 H 174.8746 c -3.74171,0 -7.18801,-0.93519 -10.33891,-2.80603 -3.05242,-1.87085 -5.51423,-4.33266 -7.38508,-7.38508 -1.87084,-3.1509 -2.80603,-6.64655 -2.80603,-10.4867 v -21.85913 c 0,-3.74169 0.93519,-7.13919 2.80603,-10.19163 1.87085,-3.1509 4.33266,-5.66151 7.38508,-7.532355 3.1509,-1.870844 6.5972,-2.806547 10.33891,-2.806547 z"/>
    </g>
</svg>
